<svg xmlns="http://www.w3.org/2000/svg" width="48" height="48" viewBox="0 0 48 48" fill="none">
  <rect width="48" height="48" rx="10" fill="#0A5EB0"/>
  <path d="M24 10c-3 0-5.5 2.5-5.5 5.5 0 3 2.5 5.5 5.5 5.5s5.5-2.5 5.5-5.5c0-3-2.5-5.5-5.5-5.5z" fill="#4169E1"/>
  <path d="M24 22c-6 0-11 3.5-11 10v4h22v-4c0-6.5-5-10-11-10z" fill="#4169E1" opacity="0.85"/>
  <path d="M19 28h10v2H19zm-2 4h14v2H17z" fill="#fff" opacity="0.8"/>
  <circle cx="24" cy="24" r="20" fill="none" stroke="#4169E1" stroke-width="1.5" opacity="0.3"/>
  <path d="M12 24l4-4 4 4 4-4 4 4 4-4 4 4" stroke="#fff" stroke-width="1.5" stroke-linecap="round" stroke-linejoin="round" fill="none" opacity="0.6"/>
</svg>
